<svg width="945" height="601" viewBox="0 0 945 601" fill="none" xmlns="http://www.w3.org/2000/svg">
<g clip-path="url(#clip0_383_6296)">
<path d="M850.311 595.398H787.714V595.872H850.311V595.398Z" fill="#3574BA"/>
<path d="M626.006 600.526H609.582V600.999H626.006V600.526Z" fill="#3574BA"/>
<path d="M785.824 577.819H749.555V578.292H785.824V577.819Z" fill="#3574BA"/>
<path d="M180.779 580.998H99.1494V581.471H180.779V580.998Z" fill="#3574BA"/>
<path d="M209.582 580.998H197.618V581.471H209.582V580.998Z" fill="#3574BA"/>
<path d="M425.533 589.003H248.478V589.476H425.533V589.003Z" fill="#3574BA"/>
<path d="M945 564.933H0V565.406H945V564.933Z" fill="#3574BA"/>
<path d="M398.28 169.584H293.177V565.652H398.28V169.584Z" fill="#F0F0F0"/>
<path d="M300.756 139.138H206.105V565.653H300.756V139.138Z" fill="#E0ECF9"/>
<path d="M222.737 345.375H128.085V565.653H222.737V345.375Z" fill="#F0F0F0"/>
<path d="M487.544 290.197H382.442V565.653H487.544V290.197Z" fill="#E0ECF9"/>
<path d="M232.413 181.014H222.737V190.797H232.413V181.014Z" fill="#FAFAFA"/>
<path d="M284.105 181.014H274.428V190.797H284.105V181.014Z" fill="#FAFAFA"/>
<path d="M232.413 212.689H222.737V222.472H232.413V212.689Z" fill="#FAFAFA"/>
<path d="M258.269 212.689H248.592V222.472H258.269V212.689Z" fill="#FAFAFA"/>
<path d="M284.105 244.385H274.428V254.168H284.105V244.385Z" fill="#FAFAFA"/>
<path d="M232.413 276.062H222.737V285.845H232.413V276.062Z" fill="#FAFAFA"/>
<path d="M258.269 276.062H248.592V285.845H258.269V276.062Z" fill="#FAFAFA"/>
<path d="M258.269 307.757H248.592V317.54H258.269V307.757Z" fill="#FAFAFA"/>
<path d="M284.105 307.757H274.428V317.54H284.105V307.757Z" fill="#FAFAFA"/>
<path d="M258.269 339.434H248.592V349.217H258.269V339.434Z" fill="#FAFAFA"/>
<path d="M284.105 339.434H274.428V349.217H284.105V339.434Z" fill="#FAFAFA"/>
<path d="M284.105 371.129H274.428V380.912H284.105V371.129Z" fill="#FAFAFA"/>
<path d="M258.269 402.806H248.592V412.589H258.269V402.806Z" fill="#FAFAFA"/>
<path d="M456.019 317.521H465.696V307.738H456.019V317.521Z" fill="#FAFAFA"/>
<path d="M404.309 317.521H413.986V307.738H404.309V317.521Z" fill="#FAFAFA"/>
<path d="M456.019 349.217H465.696V339.434H456.019V349.217Z" fill="#FAFAFA"/>
<path d="M430.164 349.217H439.841V339.434H430.164V349.217Z" fill="#FAFAFA"/>
<path d="M404.309 380.893H413.986V371.11H404.309V380.893Z" fill="#FAFAFA"/>
<path d="M456.019 412.588H465.696V402.805H456.019V412.588Z" fill="#FAFAFA"/>
<path d="M430.164 412.588H439.841V402.805H430.164V412.588Z" fill="#FAFAFA"/>
<path d="M430.164 444.265H439.841V434.482H430.164V444.265Z" fill="#FAFAFA"/>
<path d="M404.309 444.265H413.986V434.482H404.309V444.265Z" fill="#FAFAFA"/>
<path d="M430.164 475.96H439.841V466.177H430.164V475.96Z" fill="#FAFAFA"/>
<path d="M404.309 475.96H413.986V466.177H404.309V475.96Z" fill="#FAFAFA"/>
<path d="M404.309 507.637H413.986V497.854H404.309V507.637Z" fill="#FAFAFA"/>
<path d="M430.164 539.332H439.841V529.549H430.164V539.332Z" fill="#FAFAFA"/>
<path d="M624.399 565.652H705.348V180.881H624.399V565.652Z" fill="#F0F0F0"/>
<path d="M699.527 565.634H772.424V151.305H699.527V565.634Z" fill="#E0ECF9"/>
<path d="M759.61 565.652H832.507V351.657H759.61V565.652Z" fill="#F0F0F0"/>
<path d="M555.641 565.652H636.59V298.068H555.641V565.652Z" fill="#E0ECF9"/>
<path d="M752.125 201.506H759.591V192.007H752.125V201.506Z" fill="#FAFAFA"/>
<path d="M712.322 201.506H719.788V192.007H712.322V201.506Z" fill="#FAFAFA"/>
<path d="M752.125 232.274H759.591V222.775H752.125V232.274Z" fill="#FAFAFA"/>
<path d="M732.243 232.274H739.708V222.775H732.243V232.274Z" fill="#FAFAFA"/>
<path d="M712.322 263.042H719.788V253.543H712.322V263.042Z" fill="#FAFAFA"/>
<path d="M752.125 293.849H759.591V284.35H752.125V293.849Z" fill="#FAFAFA"/>
<path d="M732.243 293.849H739.708V284.35H732.243V293.849Z" fill="#FAFAFA"/>
<path d="M732.243 324.616H739.708V315.117H732.243V324.616Z" fill="#FAFAFA"/>
<path d="M712.322 324.616H719.788V315.117H712.322V324.616Z" fill="#FAFAFA"/>
<path d="M732.243 355.385H739.708V345.886H732.243V355.385Z" fill="#FAFAFA"/>
<path d="M712.322 355.385H719.788V345.886H712.322V355.385Z" fill="#FAFAFA"/>
<path d="M712.322 386.19H719.788V376.691H712.322V386.19Z" fill="#FAFAFA"/>
<path d="M732.243 416.959H739.708V407.46H732.243V416.959Z" fill="#FAFAFA"/>
<path d="M579.965 315.117H572.5V324.616H579.965V315.117Z" fill="#FAFAFA"/>
<path d="M619.769 315.117H612.303V324.616H619.769V315.117Z" fill="#FAFAFA"/>
<path d="M579.965 345.904H572.5V355.403H579.965V345.904Z" fill="#FAFAFA"/>
<path d="M599.867 345.904H592.402V355.403H599.867V345.904Z" fill="#FAFAFA"/>
<path d="M619.769 376.673H612.303V386.172H619.769V376.673Z" fill="#FAFAFA"/>
<path d="M579.965 407.459H572.5V416.958H579.965V407.459Z" fill="#FAFAFA"/>
<path d="M599.867 407.459H592.402V416.958H599.867V407.459Z" fill="#FAFAFA"/>
<path d="M599.867 438.246H592.402V447.745H599.867V438.246Z" fill="#FAFAFA"/>
<path d="M619.769 438.246H612.303V447.745H619.769V438.246Z" fill="#FAFAFA"/>
<path d="M599.867 469.015H592.402V478.514H599.867V469.015Z" fill="#FAFAFA"/>
<path d="M619.769 469.015H612.303V478.514H619.769V469.015Z" fill="#FAFAFA"/>
<path d="M619.769 499.802H612.303V509.301H619.769V499.802Z" fill="#FAFAFA"/>
<path d="M599.867 530.588H592.402V540.087H599.867V530.588Z" fill="#FAFAFA"/>
<path d="M319.448 64.885C319.448 64.885 142.695 90.0142 161.009 36.2552C179.323 -17.5039 216.594 36.2552 216.594 36.2552C216.594 36.2552 235.759 2.49728 256.681 12.3559C277.603 22.2146 279.739 44.2783 279.739 44.2783C279.739 44.2783 285.938 26.2451 302.702 45.5462C319.448 64.8661 317.841 41.2886 319.448 64.8661V64.885Z" fill="#F0F0F0"/>
<path d="M670.553 58.3375C670.553 58.3375 554.186 74.8759 566.244 39.4906C578.302 4.10542 602.834 39.4906 602.834 39.4906C602.834 39.4906 615.46 17.2566 629.219 23.766C642.978 30.2753 644.396 44.789 644.396 44.789C644.396 44.789 648.478 32.9056 659.516 45.6216C670.553 58.3375 669.476 42.821 670.553 58.3375Z" fill="#F0F0F0"/>
<path d="M790.719 40.7209C790.719 40.7209 658.211 59.5678 671.952 19.2627C685.673 -21.0424 713.626 19.2627 713.626 19.2627C713.626 19.2627 727.99 -6.05572 743.677 1.34301C759.364 8.74174 760.971 25.2801 760.971 25.2801C760.971 25.2801 765.62 11.7504 778.189 26.2451C790.757 40.7398 789.529 23.0472 790.757 40.7209H790.719Z" fill="#F0F0F0"/>
</g>
<defs>
<clipPath id="clip0_383_6296">
<rect width="945" height="601" fill="white"/>
</clipPath>
</defs>
</svg>
